<svg xmlns="http://www.w3.org/2000/svg" width="375" viewBox="0 0 375 375" height="375" version="1.0"><defs><clipPath id="a"><path d="M 124.335938 71.039062 L 235 71.039062 L 235 172 L 124.335938 172 Z M 124.335938 71.039062"/></clipPath><clipPath id="b"><path d="M 140 120 L 250.335938 120 L 250.335938 221.039062 L 140 221.039062 Z M 140 120"/></clipPath></defs><path fill="#FFF" d="M-37.5 -37.5H412.5V412.5H-37.5z"/><path fill="#FFF" d="M-37.5 -37.5H412.5V412.5H-37.5z"/><path fill="#F8EFE8" d="M-37.5 -37.5H412.5V412.5H-37.5z"/><g clip-path="url(#a)"><path fill="#E4A87D" d="M 159.148438 131.621094 C 162.726562 126.039062 183.058594 109.625 197.304688 114.5 C 192.546875 124.664062 161.277344 124.417969 162.144531 147.507812 C 166.132812 144.058594 180.597656 138.277344 186.519531 135.691406 L 194.171875 132.296875 C 203.710938 129.597656 218 120.414062 224.203125 112.0625 C 233.183594 99.976562 235.394531 85.992188 234.171875 71.039062 C 230.972656 75.046875 224.132812 77.277344 215.574219 79.667969 C 185.183594 88.140625 183.515625 89.976562 161.21875 108.082031 C 141.546875 124.054688 127.898438 145.527344 124.339844 171.988281 C 135.269531 171.210938 141.859375 149.789062 159.148438 131.621094 Z M 159.148438 131.621094"/></g><g clip-path="url(#b)"><path fill="#3C2116" d="M 215.523438 160.457031 C 211.949219 166.035156 191.613281 182.453125 177.367188 177.574219 C 182.125 167.414062 213.394531 167.660156 212.527344 144.570312 C 208.539062 148.015625 194.074219 153.800781 188.152344 156.386719 L 180.503906 159.78125 C 170.964844 162.480469 156.671875 171.664062 150.46875 180.011719 C 141.488281 192.101562 139.277344 206.085938 140.5 221.039062 C 143.699219 217.03125 150.539062 214.796875 159.097656 212.410156 C 189.488281 203.933594 191.15625 202.101562 213.453125 183.996094 C 233.125 168.023438 246.773438 146.546875 250.332031 120.089844 C 239.402344 120.867188 232.8125 142.289062 215.523438 160.457031 Z M 215.523438 160.457031"/></g><g fill="#3D3C3C"><g><g><path d="M 22.375 0 C 21.96875 0 21.691406 -0.203125 21.546875 -0.609375 L 20.3125 -4.6875 C 20.28125 -4.832031 20.191406 -4.90625 20.046875 -4.90625 L 9.328125 -4.90625 C 9.179688 -4.90625 9.09375 -4.832031 9.0625 -4.6875 L 7.84375 -0.609375 C 7.695312 -0.203125 7.414062 0 7 0 L 1.921875 0 C 1.660156 0 1.472656 -0.078125 1.359375 -0.234375 C 1.242188 -0.398438 1.226562 -0.597656 1.3125 -0.828125 L 10.640625 -30.03125 C 10.785156 -30.4375 11.0625 -30.640625 11.46875 -30.640625 L 17.90625 -30.640625 C 18.3125 -30.640625 18.585938 -30.4375 18.734375 -30.03125 L 28.0625 -0.828125 C 28.09375 -0.773438 28.109375 -0.6875 28.109375 -0.5625 C 28.109375 -0.394531 28.046875 -0.257812 27.921875 -0.15625 C 27.804688 -0.0507812 27.648438 0 27.453125 0 Z M 10.59375 -9.984375 C 10.5625 -9.773438 10.632812 -9.671875 10.8125 -9.671875 L 18.5625 -9.671875 C 18.738281 -9.671875 18.8125 -9.773438 18.78125 -9.984375 L 14.84375 -23.328125 C 14.8125 -23.453125 14.757812 -23.515625 14.6875 -23.515625 C 14.613281 -23.515625 14.546875 -23.453125 14.484375 -23.328125 Z M 10.59375 -9.984375" transform="translate(84.514 263.91)"/></g></g></g><g fill="#3D3C3C"><g><g><path d="M 12.171875 0.34375 C 9.835938 0.34375 7.816406 -0.238281 6.109375 -1.40625 C 4.398438 -2.570312 3.179688 -4.175781 2.453125 -6.21875 C 1.953125 -7.675781 1.703125 -9.398438 1.703125 -11.390625 C 1.703125 -13.335938 1.953125 -15.03125 2.453125 -16.46875 C 3.148438 -18.445312 4.359375 -20.003906 6.078125 -21.140625 C 7.804688 -22.285156 9.835938 -22.859375 12.171875 -22.859375 C 14.503906 -22.859375 16.550781 -22.269531 18.3125 -21.09375 C 20.082031 -19.925781 21.257812 -18.457031 21.84375 -16.6875 C 22.019531 -16.269531 22.140625 -15.816406 22.203125 -15.328125 L 22.203125 -15.234375 C 22.203125 -14.859375 21.984375 -14.625 21.546875 -14.53125 L 16.9375 -13.828125 L 16.71875 -13.796875 C 16.375 -13.796875 16.171875 -13.96875 16.109375 -14.3125 L 15.984375 -14.921875 C 15.773438 -15.679688 15.320312 -16.3125 14.625 -16.8125 C 13.925781 -17.3125 13.09375 -17.5625 12.125 -17.5625 C 11.1875 -17.5625 10.394531 -17.328125 9.75 -16.859375 C 9.113281 -16.390625 8.664062 -15.742188 8.40625 -14.921875 C 8.082031 -14.046875 7.921875 -12.851562 7.921875 -11.34375 C 7.921875 -9.820312 8.066406 -8.625 8.359375 -7.75 C 8.617188 -6.875 9.078125 -6.1875 9.734375 -5.6875 C 10.390625 -5.195312 11.1875 -4.953125 12.125 -4.953125 C 13.03125 -4.953125 13.828125 -5.191406 14.515625 -5.671875 C 15.203125 -6.148438 15.675781 -6.800781 15.9375 -7.625 L 15.984375 -7.84375 C 16.015625 -7.957031 16.113281 -8.09375 16.28125 -8.25 C 16.457031 -8.414062 16.648438 -8.484375 16.859375 -8.453125 L 21.453125 -7.75 C 21.679688 -7.6875 21.847656 -7.582031 21.953125 -7.4375 C 22.054688 -7.289062 22.09375 -7.117188 22.0625 -6.921875 C 22.007812 -6.453125 21.9375 -6.113281 21.84375 -5.90625 C 21.226562 -3.957031 20.035156 -2.425781 18.265625 -1.3125 C 16.503906 -0.207031 14.472656 0.34375 12.171875 0.34375 Z M 12.171875 0.34375" transform="translate(113.884 263.91)"/></g></g></g><g fill="#3D3C3C"><g><g><path d="M 12.265625 0.34375 C 9.773438 0.34375 7.65625 -0.296875 5.90625 -1.578125 C 4.15625 -2.859375 2.960938 -4.609375 2.328125 -6.828125 C 1.910156 -8.203125 1.703125 -9.691406 1.703125 -11.296875 C 1.703125 -13.078125 1.921875 -14.625 2.359375 -15.9375 C 3.035156 -18.09375 4.238281 -19.785156 5.96875 -21.015625 C 7.707031 -22.242188 9.816406 -22.859375 12.296875 -22.859375 C 14.691406 -22.859375 16.742188 -22.242188 18.453125 -21.015625 C 20.160156 -19.785156 21.347656 -18.109375 22.015625 -15.984375 C 22.453125 -14.640625 22.671875 -13.109375 22.671875 -11.390625 C 22.671875 -9.867188 22.484375 -8.394531 22.109375 -6.96875 C 21.441406 -4.6875 20.238281 -2.894531 18.5 -1.59375 C 16.757812 -0.300781 14.679688 0.34375 12.265625 0.34375 Z M 12.265625 -4.953125 C 13.191406 -4.953125 13.988281 -5.242188 14.65625 -5.828125 C 15.332031 -6.410156 15.816406 -7.210938 16.109375 -8.234375 C 16.347656 -9.015625 16.46875 -10.035156 16.46875 -11.296875 C 16.46875 -12.523438 16.347656 -13.5625 16.109375 -14.40625 C 15.816406 -15.394531 15.332031 -16.164062 14.65625 -16.71875 C 13.988281 -17.28125 13.160156 -17.5625 12.171875 -17.5625 C 11.203125 -17.5625 10.382812 -17.28125 9.71875 -16.71875 C 9.050781 -16.164062 8.570312 -15.394531 8.28125 -14.40625 C 8.039062 -13.5625 7.921875 -12.523438 7.921875 -11.296875 C 7.921875 -10.097656 8.039062 -9.078125 8.28125 -8.234375 C 8.570312 -7.210938 9.054688 -6.410156 9.734375 -5.828125 C 10.421875 -5.242188 11.265625 -4.953125 12.265625 -4.953125 Z M 12.265625 -4.953125" transform="translate(137.388 263.91)"/></g></g></g><g fill="#3D3C3C"><g><g><path d="M 3.109375 0 C 2.609375 0 2.359375 -0.25 2.359375 -0.75 L 2.359375 -29.90625 C 2.359375 -30.394531 2.609375 -30.640625 3.109375 -30.640625 L 7.796875 -30.640625 C 8.285156 -30.640625 8.53125 -30.394531 8.53125 -29.90625 L 8.53125 -0.75 C 8.53125 -0.25 8.285156 0 7.796875 0 Z M 3.109375 0" transform="translate(161.768 263.91)"/></g></g></g><g fill="#3D3C3C"><g><g><path d="M 14.015625 -22.859375 C 16.347656 -22.859375 18.226562 -22.140625 19.65625 -20.703125 C 21.082031 -19.273438 21.796875 -17.335938 21.796875 -14.890625 L 21.796875 -0.75 C 21.796875 -0.25 21.550781 0 21.0625 0 L 16.375 0 C 15.875 0 15.625 -0.25 15.625 -0.75 L 15.625 -13.609375 C 15.625 -14.785156 15.300781 -15.738281 14.65625 -16.46875 C 14.019531 -17.195312 13.160156 -17.5625 12.078125 -17.5625 C 11.003906 -17.5625 10.128906 -17.195312 9.453125 -16.46875 C 8.785156 -15.738281 8.453125 -14.785156 8.453125 -13.609375 L 8.453125 -0.75 C 8.453125 -0.25 8.203125 0 7.703125 0 L 3.015625 0 C 2.523438 0 2.28125 -0.25 2.28125 -0.75 L 2.28125 -29.90625 C 2.28125 -30.394531 2.523438 -30.640625 3.015625 -30.640625 L 7.703125 -30.640625 C 8.203125 -30.640625 8.453125 -30.394531 8.453125 -29.90625 L 8.453125 -20.53125 C 8.453125 -20.414062 8.476562 -20.34375 8.53125 -20.3125 C 8.59375 -20.28125 8.65625 -20.3125 8.71875 -20.40625 C 9.90625 -22.039062 11.671875 -22.859375 14.015625 -22.859375 Z M 14.015625 -22.859375" transform="translate(172.666 263.91)"/></g></g></g><g fill="#3D3C3C"><g><g><path d="M 13.140625 -4.859375 C 15.066406 -4.941406 16.539062 -5.613281 17.5625 -6.875 C 17.726562 -7.082031 17.914062 -7.1875 18.125 -7.1875 C 18.300781 -7.1875 18.460938 -7.113281 18.609375 -6.96875 L 21.109375 -4.546875 C 21.273438 -4.378906 21.359375 -4.207031 21.359375 -4.03125 C 21.359375 -3.820312 21.300781 -3.644531 21.1875 -3.5 C 20.226562 -2.300781 18.992188 -1.359375 17.484375 -0.671875 C 15.984375 0.00390625 14.34375 0.34375 12.5625 0.34375 C 9.875 0.34375 7.644531 -0.335938 5.875 -1.703125 C 4.113281 -3.078125 2.929688 -4.960938 2.328125 -7.359375 C 1.972656 -8.640625 1.796875 -9.992188 1.796875 -11.421875 C 1.796875 -13.117188 1.957031 -14.550781 2.28125 -15.71875 C 2.863281 -17.875 4.035156 -19.609375 5.796875 -20.921875 C 7.566406 -22.234375 9.660156 -22.890625 12.078125 -22.890625 C 14.941406 -22.890625 17.210938 -22.039062 18.890625 -20.34375 C 20.566406 -18.65625 21.65625 -16.28125 22.15625 -13.21875 C 22.269531 -12.257812 22.359375 -11.195312 22.421875 -10.03125 C 22.421875 -9.53125 22.171875 -9.28125 21.671875 -9.28125 L 8.234375 -9.28125 C 8.054688 -9.28125 7.96875 -9.191406 7.96875 -9.015625 C 8.050781 -8.398438 8.15625 -7.945312 8.28125 -7.65625 C 8.570312 -6.75 9.144531 -6.054688 10 -5.578125 C 10.863281 -5.097656 11.910156 -4.859375 13.140625 -4.859375 Z M 12 -17.5625 C 11.0625 -17.5625 10.28125 -17.332031 9.65625 -16.875 C 9.03125 -16.425781 8.597656 -15.789062 8.359375 -14.96875 C 8.210938 -14.414062 8.125 -14.050781 8.09375 -13.875 C 8.070312 -13.695312 8.144531 -13.609375 8.3125 -13.609375 L 15.765625 -13.609375 C 15.910156 -13.609375 15.984375 -13.671875 15.984375 -13.796875 C 15.984375 -14.109375 15.925781 -14.441406 15.8125 -14.796875 C 15.539062 -15.640625 15.082031 -16.3125 14.4375 -16.8125 C 13.800781 -17.3125 12.988281 -17.5625 12 -17.5625 Z M 12 -17.5625" transform="translate(196.608 263.91)"/></g></g></g><g fill="#3D3C3C"><g><g><path d="M 2.015625 -10.28125 C 1.515625 -10.28125 1.265625 -10.53125 1.265625 -11.03125 L 1.265625 -14.84375 C 1.265625 -15.34375 1.515625 -15.59375 2.015625 -15.59375 L 15.890625 -15.59375 C 16.390625 -15.59375 16.640625 -15.34375 16.640625 -14.84375 L 16.640625 -11.03125 C 16.640625 -10.53125 16.390625 -10.28125 15.890625 -10.28125 Z M 2.015625 -10.28125" transform="translate(220.55 263.91)"/></g></g></g><g fill="#3D3C3C"><g><g><path d="M 13.046875 0.34375 C 10.765625 0.34375 8.765625 -0.03125 7.046875 -0.78125 C 5.328125 -1.539062 4 -2.609375 3.0625 -3.984375 C 2.125 -5.359375 1.65625 -6.960938 1.65625 -8.796875 L 1.65625 -9.546875 C 1.65625 -10.035156 1.90625 -10.28125 2.40625 -10.28125 L 7 -10.28125 C 7.5 -10.28125 7.75 -10.09375 7.75 -9.71875 L 7.75 -9.109375 C 7.75 -7.941406 8.28125 -6.957031 9.34375 -6.15625 C 10.414062 -5.351562 11.8125 -4.953125 13.53125 -4.953125 C 15.070312 -4.953125 16.210938 -5.28125 16.953125 -5.9375 C 17.703125 -6.59375 18.078125 -7.398438 18.078125 -8.359375 C 18.078125 -9.054688 17.84375 -9.644531 17.375 -10.125 C 16.914062 -10.613281 16.289062 -11.039062 15.5 -11.40625 C 14.707031 -11.769531 13.4375 -12.273438 11.6875 -12.921875 C 9.707031 -13.585938 8.046875 -14.269531 6.703125 -14.96875 C 5.359375 -15.675781 4.21875 -16.632812 3.28125 -17.84375 C 2.34375 -19.050781 1.875 -20.546875 1.875 -22.328125 C 1.875 -24.078125 2.328125 -25.609375 3.234375 -26.921875 C 4.140625 -28.234375 5.398438 -29.238281 7.015625 -29.9375 C 8.640625 -30.644531 10.488281 -31 12.5625 -31 C 14.78125 -31 16.765625 -30.601562 18.515625 -29.8125 C 20.265625 -29.03125 21.628906 -27.929688 22.609375 -26.515625 C 23.585938 -25.097656 24.078125 -23.453125 24.078125 -21.578125 L 24.078125 -21.140625 C 24.078125 -20.648438 23.828125 -20.40625 23.328125 -20.40625 L 18.734375 -20.40625 C 18.242188 -20.40625 18 -20.550781 18 -20.84375 L 18 -21.28125 C 18 -22.5 17.492188 -23.539062 16.484375 -24.40625 C 15.472656 -25.269531 14.09375 -25.703125 12.34375 -25.703125 C 10.945312 -25.703125 9.867188 -25.410156 9.109375 -24.828125 C 8.347656 -24.242188 7.96875 -23.441406 7.96875 -22.421875 C 7.96875 -21.691406 8.1875 -21.078125 8.625 -20.578125 C 9.0625 -20.078125 9.722656 -19.625 10.609375 -19.21875 C 11.503906 -18.8125 12.882812 -18.285156 14.75 -17.640625 C 16.789062 -16.878906 18.410156 -16.210938 19.609375 -15.640625 C 20.804688 -15.078125 21.878906 -14.210938 22.828125 -13.046875 C 23.773438 -11.878906 24.25 -10.375 24.25 -8.53125 C 24.25 -6.75 23.789062 -5.1875 22.875 -3.84375 C 21.957031 -2.507812 20.660156 -1.476562 18.984375 -0.75 C 17.304688 -0.0195312 15.328125 0.34375 13.046875 0.34375 Z M 13.046875 0.34375" transform="translate(238.452 263.91)"/></g></g></g><g fill="#3D3C3C"><g><g><path d="M 15.328125 -30.6875 C 17.253906 -30.6875 18.945312 -30.289062 20.40625 -29.5 C 21.863281 -28.71875 22.992188 -27.601562 23.796875 -26.15625 C 24.597656 -24.707031 25 -23.050781 25 -21.1875 C 25 -19.351562 24.582031 -17.734375 23.75 -16.328125 C 22.914062 -14.929688 21.75 -13.84375 20.25 -13.0625 C 18.75 -12.289062 17.019531 -11.90625 15.0625 -11.90625 L 8.890625 -11.90625 C 8.710938 -11.90625 8.625 -11.816406 8.625 -11.640625 L 8.625 -0.75 C 8.625 -0.25 8.375 0 7.875 0 L 3.203125 0 C 2.703125 0 2.453125 -0.25 2.453125 -0.75 L 2.453125 -29.953125 C 2.453125 -30.441406 2.703125 -30.6875 3.203125 -30.6875 Z M 14.40625 -16.859375 C 15.75 -16.859375 16.828125 -17.242188 17.640625 -18.015625 C 18.460938 -18.785156 18.875 -19.800781 18.875 -21.0625 C 18.875 -22.34375 18.460938 -23.375 17.640625 -24.15625 C 16.828125 -24.945312 15.75 -25.34375 14.40625 -25.34375 L 8.890625 -25.34375 C 8.710938 -25.34375 8.625 -25.257812 8.625 -25.09375 L 8.625 -17.125 C 8.625 -16.945312 8.710938 -16.859375 8.890625 -16.859375 Z M 14.40625 -16.859375" transform="translate(264.363 263.91)"/></g></g></g></svg>